<svg version="1.1" xmlns="http://www.w3.org/2000/svg" xmlns:xlink="http://www.w3.org/1999/xlink" width="48" height="48"><defs><linearGradient x1="9.82526" y1="9.82523" x2="44.33011" y2="44.33009" gradientUnits="userSpaceOnUse" id="color-1"><stop offset="0" stop-color="#000000" stop-opacity="0.27"></stop><stop offset="1" stop-color="#000000" stop-opacity="0"></stop></linearGradient><filter id="dropshadow-base"><feColorMatrix type="matrix" values="0 0 0 0 0  0 0 0 0 0  0 0 0 0 0  0 0 0 .8 0"></feColorMatrix> <feOffset dx="0" dy="1"></feOffset> <feGaussianBlur stdDeviation="1"></feGaussianBlur> <feComposite in="SourceGraphic"></feComposite></filter><filter id="dropshadow-banner" x="-10%" y="-10%" width="120%" height="130%"><feColorMatrix type="matrix" values="0 0 0 0 0  0 0 0 0 0  0 0 0 0 0  0 0 0 .4 0"></feColorMatrix> <feOffset dx="0" dy="1"></feOffset> <feGaussianBlur stdDeviation="0.5"></feGaussianBlur> <feComposite in="SourceGraphic"></feComposite></filter></defs><g fill="none" fill-rule="nonzero" stroke="none" stroke-width="none" stroke-linecap="butt" stroke-linejoin="miter" stroke-miterlimit="10" stroke-dasharray="" stroke-dashoffset="0" font-family="none" font-weight="none" font-size="none" text-anchor="none" style="mix-blend-mode: normal"><path d="M2,24c0,-12.15026 9.84974,-22 22,-22c12.15026,0 22,9.84974 22,22c0,12.15026 -9.84974,22 -22,22c-12.15026,0 -22,-9.84974 -22,-22z" id="base 1 9" fill="#bebebe" stroke-width="1"></path><path d="M25.43712,42.16858c-0.4108,0.71899 -0.70104,1.12952 -0.79858,1.12952c-0.2013,0 -2.8939,-1.55717 -3.15078,-1.81405l-6.15535,-6.15535c-0.01011,-0.01011 -0.01644,-0.0182 -0.01871,-0.02411c-0.00287,-0.00747 -0.00239,-0.02036 0.00118,-0.03813l-2.67125,-2.67125c-0.29636,-0.29636 -1.85134,-2.87908 -1.8599,-3.10971c-0.00214,-0.05769 0.49218,-0.39059 1.09847,-0.73979c0.18691,-0.10765 0.36516,-0.21087 0.52299,-0.30276l-2.56354,-2.56354v-1.12434c-0.02189,-0.46828 -0.02189,-1.02546 0,-1.49374v-1.1295h1.30197c0.92918,0 1.32873,-0.03358 1.39543,-0.11727c0.05141,-0.0645 0.12302,-0.32133 0.15914,-0.57073c0.03502,-0.2418 0.12045,-0.60139 0.19269,-0.81318l-2.0851,-2.0851c-0.01625,-0.01625 -0.02484,-0.02837 -0.02492,-0.03578c-0.00149,-0.14888 1.76352,-3.17369 1.87325,-3.21031c0.05033,-0.0168 0.575,0.24707 1.16594,0.58637c0.59093,0.3393 1.11931,0.6169 1.17415,0.6169c0.12176,0 1.50853,-1.3654 1.50853,-1.48527c0,-0.0988 -1.00323,-1.89468 -1.133,-2.02821c-0.23401,-0.24077 -0.03067,-0.4219 1.41368,-1.25916c0.87417,-0.50675 1.57982,-0.85715 1.69084,-0.83961c0.0356,0.00562 0.08115,0.03604 0.13748,0.09237c0,0 0,0 0,0l1.94841,1.94841c0.99237,-0.23742 1.28116,-0.31499 1.38408,-0.36607c0.11321,-0.0562 0.14582,-0.32928 0.16675,-1.3967l0.02602,-1.32684h1.12434c0.46828,-0.02189 1.02547,-0.02189 1.49375,0h1.12434l2.55901,2.55901c0.07505,-0.12586 0.16017,-0.27238 0.25723,-0.44206c0.37083,-0.64831 0.72385,-1.1759 0.78447,-1.17241c0.23656,0.01361 2.82102,1.57503 3.11684,1.87084l2.67901,2.67901c0.02773,-0.00326 0.04779,-0.00083 0.0602,0.0073c0.00443,0.0029 0.00975,0.00748 0.01593,0.01365l6.15535,6.15535c0.2423,0.2423 1.79062,2.94209 1.79062,3.13094c0,0.10503 -0.22634,0.28729 -0.63327,0.50994c-0.25611,0.14013 -0.61909,0.34801 -0.93836,0.53539l2.60363,2.60363v3.74269l-2.74747,0.05194l-0.27078,1.078c-0.03417,0.13602 -0.06518,0.26696 -0.0922,0.38816l1.6928,1.6928c-0.67154,1.12692 -1.44094,2.18875 -2.29648,3.17376c-0.13185,-0.07229 -0.27194,-0.15156 -0.41387,-0.23455c-0.57355,-0.3354 -1.06625,-0.60981 -1.0949,-0.60981c-0.05018,0 -1.53201,1.50862 -1.53201,1.55969c0,0.01379 0.27442,0.49724 0.60981,1.0743c0.08172,0.1406 0.15982,0.2792 0.23121,0.40969c-0.99581,0.86457 -2.0701,1.64113 -3.21075,2.31755l-1.70727,-1.70727c-0.11073,0.0256 -0.23653,0.0563 -0.37937,0.09238l-1.03199,0.26063l-0.05194,2.74792h-3.74771l-2.59738,-2.59738c-0.07276,0.12268 -0.15617,0.26689 -0.25271,0.43587zM18.66334,30.48166c-0.2568,-0.33539 -0.52571,-0.67315 -0.59758,-0.75054c-0.21173,-0.22803 -0.53499,-0.74228 -0.91573,-1.44394h-1.15302v1.1295c-0.00118,0.02524 -0.0023,0.05074 -0.00335,0.07647l2.70587,2.70587c0.00889,0.00889 0.01563,0.01838 0.02063,0.02851c0.10756,0.21789 0.50954,1.95921 0.46198,2.00126c-0.01911,0.01689 -0.37089,0.22451 -0.83249,0.49197l1.06364,1.06364c0.43934,-0.75864 0.55532,-0.88849 0.70147,-0.84548c0.10319,0.03038 0.54649,0.14227 0.98509,0.24868c0.4386,0.10641 0.85023,0.20855 0.91473,0.22699c0.00667,0.00191 0.013,0.0058 0.01901,0.01181c0,0 0,0 0,0l2.74833,2.74833h1.09765l0.00299,-0.15807l-5.54708,-5.54708c-0.37018,-0.37018 -0.68468,-0.70578 -0.84203,-0.90901c-0.19976,-0.25801 -0.5733,-0.74351 -0.8301,-1.07891zM29.49306,15.99364c-0.02569,0.00105 -0.05115,0.00217 -0.07635,0.00334h-1.12434l-0.00642,0.32755c0.67526,0.15884 1.30768,0.28949 1.93867,0.40065z" fill="url(#color-1)" stroke-width="1"></path><path d="M22.13185,36.81145c0,-1.01022 -0.03037,-1.37199 -0.11727,-1.39684c-0.0645,-0.01844 -0.47613,-0.12059 -0.91473,-0.227c-0.4386,-0.10641 -0.88189,-0.21831 -0.98509,-0.24868c-0.15977,-0.04702 -0.28348,0.11254 -0.83299,1.0743c-0.41079,0.71899 -0.70104,1.12952 -0.79858,1.12952c-0.20921,0 -3.1096,-1.68209 -3.16948,-1.83815c-0.02637,-0.06873 0.23037,-0.5954 0.57055,-1.17039c0.34017,-0.57499 0.6185,-1.09474 0.6185,-1.15501c0,-0.06027 -0.33218,-0.43981 -0.73817,-0.84342l-0.73817,-0.73384l-1.09004,0.62589c-0.59952,0.34424 -1.16448,0.61191 -1.25547,0.59482c-0.15592,-0.02928 -1.88815,-2.89369 -1.89717,-3.13715c-0.00214,-0.05769 0.49218,-0.39059 1.09848,-0.73979c0.6063,-0.3492 1.12137,-0.65171 1.14459,-0.67225c0.04756,-0.04206 -0.35442,-1.78337 -0.46199,-2.00126c-0.0559,-0.11323 -0.32869,-0.14581 -1.39631,-0.16676l-1.32684,-0.02603v-1.12435c-0.02189,-0.46828 -0.02189,-1.02545 0,-1.49373v-1.1295h1.30197c0.92918,0 1.32873,-0.03358 1.39544,-0.11727c0.05141,-0.0645 0.12302,-0.32133 0.15914,-0.57073c0.03612,-0.2494 0.12588,-0.62412 0.19947,-0.8327c0.22859,-0.64788 0.2198,-0.65989 -0.99098,-1.35331c-0.61863,-0.35429 -1.12525,-0.69091 -1.12582,-0.74804c-0.00149,-0.14888 1.76352,-3.17369 1.87325,-3.21031c0.05033,-0.0168 0.57501,0.24707 1.16594,0.58636c0.59094,0.3393 1.1193,0.61691 1.17415,0.61691c0.12176,0 1.50854,-1.36539 1.50854,-1.48528c0,-0.0988 -1.00323,-1.89468 -1.13301,-2.02821c-0.23402,-0.24077 -0.03067,-0.42189 1.41368,-1.25916c0.87417,-0.50674 1.57982,-0.85715 1.69083,-0.83962c0.1301,0.02054 0.39306,0.37227 0.82912,1.10899c0.40849,0.69016 0.68663,1.06751 0.7719,1.04727c1.38832,-0.32954 1.7509,-0.42296 1.86894,-0.48156c0.11321,-0.0562 0.14582,-0.32928 0.16676,-1.39669l0.02603,-1.32684h1.12434c0.46828,-0.02189 1.02547,-0.02189 1.49375,0h1.12434l0.02603,1.32684c0.02094,1.06753 0.05353,1.34045 0.16676,1.39649c0.0774,0.03831 0.47847,0.15407 0.89127,0.25724c0.4128,0.10317 0.81971,0.21627 0.90425,0.25134c0.12162,0.05045 0.29446,-0.18231 0.82794,-1.11498c0.37083,-0.64831 0.72384,-1.17589 0.78447,-1.17241c0.24965,0.01435 3.11411,1.75249 3.14413,1.90784c0.01744,0.09025 -0.24643,0.64455 -0.58636,1.23176c-0.33994,0.58722 -0.61807,1.08119 -0.61807,1.09773c0,0.01654 0.3426,0.3787 0.76133,0.8048l0.66883,0.68061c0.04758,0.03639 0.08692,0.06397 0.11559,0.08049l1.11228,-0.65647c0.75873,-0.44781 1.17617,-0.6434 1.25833,-0.5896c0.17835,0.11679 1.80654,2.95092 1.80654,3.14459c0,0.10503 -0.22635,0.2873 -0.63327,0.50993c-0.50178,0.27453 -1.41376,0.80917 -1.60359,0.94009c-0.01767,0.01219 0.04125,0.26805 0.13095,0.56857c0.0897,0.30053 0.21138,0.77861 0.27041,1.06241l0.10733,0.516l1.38008,0.02596l1.38008,0.02596v3.7427l-1.37374,0.02596l-1.37374,0.02596l-0.27078,1.07801c-0.14893,0.59291 -0.2379,1.08929 -0.19772,1.10307c0.04019,0.01378 0.53746,0.28974 1.10506,0.61324c0.70579,0.40226 1.03993,0.6467 1.05709,0.7733c0.0138,0.10181 -0.26308,0.67062 -0.61527,1.26402c-0.3522,0.5934 -0.74067,1.25834 -0.86327,1.47764c-0.13047,0.23338 -0.29131,0.39873 -0.38786,0.39873c-0.09072,0 -0.63422,-0.27442 -1.20777,-0.60982c-0.57355,-0.3354 -1.06626,-0.60982 -1.0949,-0.60982c-0.05018,0 -1.53201,1.50862 -1.53201,1.5597c0,0.0138 0.27442,0.49723 0.60982,1.0743c0.3354,0.57707 0.60982,1.12041 0.60982,1.20743c0,0.08861 -0.1754,0.25626 -0.39873,0.38112c-0.2193,0.1226 -0.88424,0.51019 -1.47764,0.86131c-0.5934,0.35112 -1.14762,0.63855 -1.2316,0.63873c-0.19946,0.00045 -0.25249,-0.07141 -0.83077,-1.12549c-0.26893,-0.4902 -0.53763,-0.94079 -0.59711,-1.00131c-0.08261,-0.08405 -0.35189,-0.04849 -1.14015,0.15059l-1.032,0.26063l-0.02596,1.37396l-0.02596,1.37396h-3.74771zM24.50788,35.01306c0.98985,-0.75356 3.90263,-3.74693 4.54634,-4.67213c0.92311,-1.32677 1.15352,-1.68173 1.82686,-2.81434c0.54268,-0.91283 0.97464,-1.78911 1.43377,-2.90857c0.52044,-1.26892 0.71882,-1.84079 1.07403,-3.096c0.53988,-1.90781 0.92495,-4.03918 0.7596,-4.20453c-0.05083,-0.05083 -0.78714,-0.17089 -1.63625,-0.2668c-2.37418,-0.26817 -4.18046,-0.64761 -7.14367,-1.50063c-0.7224,-0.20796 -1.39789,-0.37919 -1.50109,-0.3805c-0.1032,-0.00132 -0.75758,0.1946 -1.45418,0.43538c-1.41426,0.48883 -3.27797,0.99155 -4.55142,1.22771c-0.46372,0.08599 -1.05422,0.19579 -1.31222,0.24399c-0.258,0.0482 -0.86198,0.1227 -1.34218,0.16557c-0.4802,0.04286 -0.91039,0.11567 -0.95597,0.16178c-0.04558,0.04612 -0.08614,0.29494 -0.09014,0.55294c-0.00987,0.63704 0.16615,2.46742 0.27066,2.81455c0.04661,0.1548 0.11198,0.45033 0.14527,0.65673c0.03329,0.2064 0.12461,0.60747 0.20293,0.89127c0.07832,0.2838 0.2068,0.7482 0.2855,1.032c0.15666,0.56491 0.71611,2.13302 0.92045,2.58c0.84942,1.85802 1.6716,3.36023 2.07959,3.79964c0.07187,0.0774 0.34077,0.41515 0.59757,0.75055c0.2568,0.3354 0.63034,0.82091 0.8301,1.07891c0.42518,0.54916 1.99772,2.06477 2.71589,2.61757c0.90336,0.69535 1.65762,1.26218 1.68873,1.26909c0.01682,0.00374 0.29124,-0.19164 0.60982,-0.43417zM20.08806,32.00297c-0.35159,-0.35159 -0.77076,-1.04308 -0.77076,-1.27149c0,-0.12781 0.17292,-0.71126 0.38427,-1.29655c0.21135,-0.58529 0.46886,-1.31748 0.57224,-1.62708c0.10338,-0.3096 0.24111,-0.71067 0.30606,-0.89127c0.30697,-0.85355 0.3632,-1.03094 0.53529,-1.68873c0.35795,-1.3682 0.55894,-2.3119 0.73934,-3.47127c0.3087,-1.98396 0.3676,-2.4529 0.43012,-3.42436c0.03321,-0.516 0.09736,-1.01022 0.14255,-1.09826c0.12808,-0.24953 0.68775,-0.35483 1.88897,-0.3554c0.75408,-0.00038 1.20878,0.04268 1.43073,0.13542l0.32535,0.13594l0.01347,0.8726c0.02353,1.52402 0.064,2.26065 0.16392,2.98352c0.05349,0.387 0.14456,1.12582 0.20236,1.64182c0.12527,1.1182 0.36576,2.37683 0.69911,3.65891c0.28663,1.10238 0.92793,3.22376 1.12935,3.73581c0.10827,0.27525 0.11893,0.44018 0.04596,0.71117c-0.11199,0.41589 -0.91604,1.40172 -1.15045,1.41053c-0.22533,0.00847 -0.6201,-0.81534 -1.05358,-2.19861c-0.57385,-1.83121 -0.81898,-2.52664 -0.9303,-2.63925c-0.0598,-0.0605 -0.61935,-0.13306 -1.30085,-0.16871c-1.53109,-0.08008 -1.51976,-0.08904 -1.89207,1.49464c-0.33972,1.44506 -0.6489,2.34226 -1.02345,2.96993c-0.33203,0.55641 -0.59788,0.67044 -0.88762,0.3807zM24.71204,25.41541c0.1872,-0.07117 0.2329,-0.13816 0.18888,-0.27686c-0.11024,-0.34733 -0.15782,-1.28006 -0.19616,-3.84512c-0.02734,-1.82916 -0.07027,-2.5937 -0.14837,-2.64197c-0.11782,-0.07281 -0.73908,-0.00516 -0.84919,0.09248c-0.03656,0.03242 -0.08795,0.37522 -0.1142,0.76178c-0.07713,1.13566 -0.22991,2.63196 -0.32789,3.21126c-0.05007,0.29603 -0.12071,1.00737 -0.157,1.58076c-0.05342,0.84426 -0.04101,1.05832 0.06525,1.1256c0.17885,0.11324 1.23428,0.1078 1.53868,-0.00794zM29.11189,29.4716c-0.3244,-0.21633 -0.82931,-1.90294 -1.07383,-3.58702c-0.27272,-1.87833 -0.28058,-3.71689 -0.03019,-7.06035c0.0831,-1.10965 0.13625,-1.17147 0.89275,-1.03838c0.32777,0.05767 0.71625,0.15197 0.86329,0.20957c0.31148,0.122 0.3125,0.04997 -0.03212,2.26007c-0.17405,1.11622 -0.2142,1.77625 -0.22368,3.6776c-0.01226,2.45986 0.04962,2.84692 0.34623,2.1657c0.085,-0.19521 0.24229,-0.69064 0.34955,-1.10095c0.4321,-1.65303 0.72243,-2.02162 1.59238,-2.02162c0.64374,0 0.77083,0.10907 0.65967,0.56612c-0.11217,0.46122 -0.2972,0.9665 -0.39219,1.07101c-0.04456,0.04902 -0.08101,0.14778 -0.08101,0.21947c0,0.07169 -0.22165,0.57634 -0.49255,1.12145c-0.66518,1.3385 -0.69912,1.39989 -1.1148,2.01671c-0.19956,0.29612 -0.36564,0.57053 -0.36906,0.60982c-0.00996,0.11424 -0.60078,0.89937 -0.70055,0.93095c-0.04987,0.01579 -0.13713,-0.00228 -0.1939,-0.04014zM18.3894,29.11556c-0.341,-0.28694 -1.00459,-1.33623 -1.42032,-2.24589c-0.16508,-0.3612 -0.35864,-0.77625 -0.43014,-0.92233c-0.0715,-0.14608 -0.13,-0.30486 -0.13,-0.35284c0,-0.04798 -0.07814,-0.2662 -0.17365,-0.48494c-0.18758,-0.42959 -0.31439,-0.87357 -0.54193,-1.89725c-0.0801,-0.36035 -0.18406,-0.72698 -0.23102,-0.81474c-0.04697,-0.08776 -0.08578,-0.32065 -0.08625,-0.51755c-0.00045,-0.19689 -0.10117,-0.75906 -0.22377,-1.24926c-0.1226,-0.4902 -0.27723,-1.17374 -0.34361,-1.51898c-0.17998,-0.936 -0.17079,-0.94163 1.80044,-1.10161c0.87137,-0.07072 1.21027,-0.06087 1.6806,0.04885c1.18075,0.27545 2.02484,0.94371 2.28083,1.80573c0.12224,0.41162 0.12164,0.5299 -0.00525,1.03359c-0.0788,0.31283 -0.31796,0.87585 -0.53147,1.25116c-0.34234,0.60179 -0.5011,0.76569 -1.34421,1.38782c-0.57746,0.42611 -0.95824,0.7723 -0.96164,0.87429c-0.00767,0.23054 0.20484,0.62641 0.8411,1.5668c0.7126,1.05321 0.82726,1.29578 0.89833,1.90046c0.06539,0.55639 -0.01407,0.79052 -0.41371,1.21899c-0.29452,0.31578 -0.30963,0.31618 -0.66434,0.01771zM17.62407,22.32077c0.68727,-0.19711 1.51946,-1.39975 1.32201,-1.91051c-0.08761,-0.22664 -0.41691,-0.5473 -0.72498,-0.70597c-0.25499,-0.13133 -1.59229,-0.13978 -1.67215,-0.01058c-0.16625,0.26901 0.41247,2.71958 0.64225,2.71958c0.06063,0 0.25542,-0.04164 0.43287,-0.09253z" id="path3386 1 1" fill="none" stroke-width="0"></path><path d="M22.13185,36.81145c0,-1.01022 -0.03037,-1.37199 -0.11727,-1.39684c-0.0645,-0.01844 -0.47613,-0.12059 -0.91473,-0.227c-0.4386,-0.10641 -0.88189,-0.21831 -0.98509,-0.24868c-0.15977,-0.04702 -0.28348,0.11254 -0.83299,1.0743c-0.41079,0.71899 -0.70104,1.12952 -0.79858,1.12952c-0.20921,0 -3.1096,-1.68209 -3.16948,-1.83815c-0.02637,-0.06873 0.23037,-0.5954 0.57055,-1.17039c0.34017,-0.57499 0.6185,-1.09474 0.6185,-1.15501c0,-0.06027 -0.33218,-0.43981 -0.73817,-0.84342l-0.73817,-0.73384l-1.09004,0.62589c-0.59952,0.34424 -1.16448,0.61191 -1.25547,0.59482c-0.15592,-0.02928 -1.88815,-2.89369 -1.89717,-3.13715c-0.00214,-0.05769 0.49218,-0.39059 1.09848,-0.73979c0.6063,-0.3492 1.12137,-0.65171 1.14459,-0.67225c0.04756,-0.04206 -0.35442,-1.78337 -0.46199,-2.00126c-0.0559,-0.11323 -0.32869,-0.14581 -1.39631,-0.16676l-1.32684,-0.02603v-1.12435c-0.02189,-0.46828 -0.02189,-1.02545 0,-1.49373v-1.1295h1.30197c0.92918,0 1.32873,-0.03358 1.39544,-0.11727c0.05141,-0.0645 0.12302,-0.32133 0.15914,-0.57073c0.03612,-0.2494 0.12588,-0.62412 0.19947,-0.8327c0.22859,-0.64788 0.2198,-0.65989 -0.99098,-1.35331c-0.61863,-0.35429 -1.12525,-0.69091 -1.12582,-0.74804c-0.00149,-0.14888 1.76352,-3.17369 1.87325,-3.21031c0.05033,-0.0168 0.57501,0.24707 1.16594,0.58636c0.59094,0.3393 1.1193,0.61691 1.17415,0.61691c0.12176,0 1.50854,-1.36539 1.50854,-1.48528c0,-0.0988 -1.00323,-1.89468 -1.13301,-2.02821c-0.23402,-0.24077 -0.03067,-0.42189 1.41368,-1.25916c0.87417,-0.50674 1.57982,-0.85715 1.69083,-0.83962c0.1301,0.02054 0.39306,0.37227 0.82912,1.10899c0.40849,0.69016 0.68663,1.06751 0.7719,1.04727c1.38832,-0.32954 1.7509,-0.42296 1.86894,-0.48156c0.11321,-0.0562 0.14582,-0.32928 0.16676,-1.39669l0.02603,-1.32684h1.12434c0.46828,-0.02189 1.02547,-0.02189 1.49375,0h1.12434l0.02603,1.32684c0.02094,1.06753 0.05353,1.34045 0.16676,1.39649c0.0774,0.03831 0.47847,0.15407 0.89127,0.25724c0.4128,0.10317 0.81971,0.21627 0.90425,0.25134c0.12162,0.05045 0.29446,-0.18231 0.82794,-1.11498c0.37083,-0.64831 0.72384,-1.17589 0.78447,-1.17241c0.24965,0.01435 3.11411,1.75249 3.14413,1.90784c0.01744,0.09025 -0.24643,0.64455 -0.58636,1.23176c-0.33994,0.58722 -0.61807,1.08119 -0.61807,1.09773c0,0.01654 0.3426,0.3787 0.76133,0.8048l0.66883,0.68061c0.04758,0.03639 0.08692,0.06397 0.11559,0.08049l1.11228,-0.65647c0.75873,-0.44781 1.17617,-0.6434 1.25833,-0.5896c0.17835,0.11679 1.80654,2.95092 1.80654,3.14459c0,0.10503 -0.22635,0.2873 -0.63327,0.50993c-0.50178,0.27453 -1.41376,0.80917 -1.60359,0.94009c-0.01767,0.01219 0.04125,0.26805 0.13095,0.56857c0.0897,0.30053 0.21138,0.77861 0.27041,1.06241l0.10733,0.516l1.38008,0.02596l1.38008,0.02596v3.7427l-1.37374,0.02596l-1.37374,0.02596l-0.27078,1.07801c-0.14893,0.59291 -0.2379,1.08929 -0.19772,1.10307c0.04019,0.01378 0.53746,0.28974 1.10506,0.61324c0.70579,0.40226 1.03993,0.6467 1.05709,0.7733c0.0138,0.10181 -0.26308,0.67062 -0.61527,1.26402c-0.3522,0.5934 -0.74067,1.25834 -0.86327,1.47764c-0.13047,0.23338 -0.29131,0.39873 -0.38786,0.39873c-0.09072,0 -0.63422,-0.27442 -1.20777,-0.60982c-0.57355,-0.3354 -1.06626,-0.60982 -1.0949,-0.60982c-0.05018,0 -1.53201,1.50862 -1.53201,1.5597c0,0.0138 0.27442,0.49723 0.60982,1.0743c0.3354,0.57707 0.60982,1.12041 0.60982,1.20743c0,0.08861 -0.1754,0.25626 -0.39873,0.38112c-0.2193,0.1226 -0.88424,0.51019 -1.47764,0.86131c-0.5934,0.35112 -1.14762,0.63855 -1.2316,0.63873c-0.19946,0.00045 -0.25249,-0.07141 -0.83077,-1.12549c-0.26893,-0.4902 -0.53763,-0.94079 -0.59711,-1.00131c-0.08261,-0.08405 -0.35189,-0.04849 -1.14015,0.15059l-1.032,0.26063l-0.02596,1.37396l-0.02596,1.37396h-3.74771zM24.50788,35.01306c0.98985,-0.75356 3.90263,-3.74693 4.54634,-4.67213c0.92311,-1.32677 1.15352,-1.68173 1.82686,-2.81434c0.54268,-0.91283 0.97464,-1.78911 1.43377,-2.90857c0.52044,-1.26892 0.71882,-1.84079 1.07403,-3.096c0.53988,-1.90781 0.92495,-4.03918 0.7596,-4.20453c-0.05083,-0.05083 -0.78714,-0.17089 -1.63625,-0.2668c-2.37418,-0.26817 -4.18046,-0.64761 -7.14367,-1.50063c-0.7224,-0.20796 -1.39789,-0.37919 -1.50109,-0.3805c-0.1032,-0.00132 -0.75758,0.1946 -1.45418,0.43538c-1.41426,0.48883 -3.27797,0.99155 -4.55142,1.22771c-0.46372,0.08599 -1.05422,0.19579 -1.31222,0.24399c-0.258,0.0482 -0.86198,0.1227 -1.34218,0.16557c-0.4802,0.04286 -0.91039,0.11567 -0.95597,0.16178c-0.04558,0.04612 -0.08614,0.29494 -0.09014,0.55294c-0.00987,0.63704 0.16615,2.46742 0.27066,2.81455c0.04661,0.1548 0.11198,0.45033 0.14527,0.65673c0.03329,0.2064 0.12461,0.60747 0.20293,0.89127c0.07832,0.2838 0.2068,0.7482 0.2855,1.032c0.15666,0.56491 0.71611,2.13302 0.92045,2.58c0.84942,1.85802 1.6716,3.36023 2.07959,3.79964c0.07187,0.0774 0.34077,0.41515 0.59757,0.75055c0.2568,0.3354 0.63034,0.82091 0.8301,1.07891c0.42518,0.54916 1.99772,2.06477 2.71589,2.61757c0.90336,0.69535 1.65762,1.26218 1.68873,1.26909c0.01682,0.00374 0.29124,-0.19164 0.60982,-0.43417zM20.08806,32.00297c-0.35159,-0.35159 -0.77076,-1.04308 -0.77076,-1.27149c0,-0.12781 0.17292,-0.71126 0.38427,-1.29655c0.21135,-0.58529 0.46886,-1.31748 0.57224,-1.62708c0.10338,-0.3096 0.24111,-0.71067 0.30606,-0.89127c0.30697,-0.85355 0.3632,-1.03094 0.53529,-1.68873c0.35795,-1.3682 0.55894,-2.3119 0.73934,-3.47127c0.3087,-1.98396 0.3676,-2.4529 0.43012,-3.42436c0.03321,-0.516 0.09736,-1.01022 0.14255,-1.09826c0.12808,-0.24953 0.68775,-0.35483 1.88897,-0.3554c0.75408,-0.00038 1.20878,0.04268 1.43073,0.13542l0.32535,0.13594l0.01347,0.8726c0.02353,1.52402 0.064,2.26065 0.16392,2.98352c0.05349,0.387 0.14456,1.12582 0.20236,1.64182c0.12527,1.1182 0.36576,2.37683 0.69911,3.65891c0.28663,1.10238 0.92793,3.22376 1.12935,3.73581c0.10827,0.27525 0.11893,0.44018 0.04596,0.71117c-0.11199,0.41589 -0.91604,1.40172 -1.15045,1.41053c-0.22533,0.00847 -0.6201,-0.81534 -1.05358,-2.19861c-0.57385,-1.83121 -0.81898,-2.52664 -0.9303,-2.63925c-0.0598,-0.0605 -0.61935,-0.13306 -1.30085,-0.16871c-1.53109,-0.08008 -1.51976,-0.08904 -1.89207,1.49464c-0.33972,1.44506 -0.6489,2.34226 -1.02345,2.96993c-0.33203,0.55641 -0.59788,0.67044 -0.88762,0.3807zM24.71204,25.41541c0.1872,-0.07117 0.2329,-0.13816 0.18888,-0.27686c-0.11024,-0.34733 -0.15782,-1.28006 -0.19616,-3.84512c-0.02734,-1.82916 -0.07027,-2.5937 -0.14837,-2.64197c-0.11782,-0.07281 -0.73908,-0.00516 -0.84919,0.09248c-0.03656,0.03242 -0.08795,0.37522 -0.1142,0.76178c-0.07713,1.13566 -0.22991,2.63196 -0.32789,3.21126c-0.05007,0.29603 -0.12071,1.00737 -0.157,1.58076c-0.05342,0.84426 -0.04101,1.05832 0.06525,1.1256c0.17885,0.11324 1.23428,0.1078 1.53868,-0.00794zM29.11189,29.4716c-0.3244,-0.21633 -0.82931,-1.90294 -1.07383,-3.58702c-0.27272,-1.87833 -0.28058,-3.71689 -0.03019,-7.06035c0.0831,-1.10965 0.13625,-1.17147 0.89275,-1.03838c0.32777,0.05767 0.71625,0.15197 0.86329,0.20957c0.31148,0.122 0.3125,0.04997 -0.03212,2.26007c-0.17405,1.11622 -0.2142,1.77625 -0.22368,3.6776c-0.01226,2.45986 0.04962,2.84692 0.34623,2.1657c0.085,-0.19521 0.24229,-0.69064 0.34955,-1.10095c0.4321,-1.65303 0.72243,-2.02162 1.59238,-2.02162c0.64374,0 0.77083,0.10907 0.65967,0.56612c-0.11217,0.46122 -0.2972,0.9665 -0.39219,1.07101c-0.04456,0.04902 -0.08101,0.14778 -0.08101,0.21947c0,0.07169 -0.22165,0.57634 -0.49255,1.12145c-0.66518,1.3385 -0.69912,1.39989 -1.1148,2.01671c-0.19956,0.29612 -0.36564,0.57053 -0.36906,0.60982c-0.00996,0.11424 -0.60078,0.89937 -0.70055,0.93095c-0.04987,0.01579 -0.13713,-0.00228 -0.1939,-0.04014zM18.3894,29.11556c-0.341,-0.28694 -1.00459,-1.33623 -1.42032,-2.24589c-0.16508,-0.3612 -0.35864,-0.77625 -0.43014,-0.92233c-0.0715,-0.14608 -0.13,-0.30486 -0.13,-0.35284c0,-0.04798 -0.07814,-0.2662 -0.17365,-0.48494c-0.18758,-0.42959 -0.31439,-0.87357 -0.54193,-1.89725c-0.0801,-0.36035 -0.18406,-0.72698 -0.23102,-0.81474c-0.04697,-0.08776 -0.08578,-0.32065 -0.08625,-0.51755c-0.00045,-0.19689 -0.10117,-0.75906 -0.22377,-1.24926c-0.1226,-0.4902 -0.27723,-1.17374 -0.34361,-1.51898c-0.17998,-0.936 -0.17079,-0.94163 1.80044,-1.10161c0.87137,-0.07072 1.21027,-0.06087 1.6806,0.04885c1.18075,0.27545 2.02484,0.94371 2.28083,1.80573c0.12224,0.41162 0.12164,0.5299 -0.00525,1.03359c-0.0788,0.31283 -0.31796,0.87585 -0.53147,1.25116c-0.34234,0.60179 -0.5011,0.76569 -1.34421,1.38782c-0.57746,0.42611 -0.95824,0.7723 -0.96164,0.87429c-0.00767,0.23054 0.20484,0.62641 0.8411,1.5668c0.7126,1.05321 0.82726,1.29578 0.89833,1.90046c0.06539,0.55639 -0.01407,0.79052 -0.41371,1.21899c-0.29452,0.31578 -0.30963,0.31618 -0.66434,0.01771zM17.62407,22.32077c0.68727,-0.19711 1.51946,-1.39975 1.32201,-1.91051c-0.08761,-0.22664 -0.41691,-0.5473 -0.72498,-0.70597c-0.25499,-0.13133 -1.59229,-0.13978 -1.67215,-0.01058c-0.16625,0.26901 0.41247,2.71958 0.64225,2.71958c0.06063,0 0.25542,-0.04164 0.43287,-0.09253z" id="path3386 1 1" fill="#000000" stroke-width="0"></path><path d="M2,24c0,-12.15026 9.84974,-22 22,-22c12.15026,0 22,9.84974 22,22c0,12.15026 -9.84974,22 -22,22c-12.15026,0 -22,-9.84974 -22,-22z" id="base 1 5 1" fill="none" stroke-width="1"></path><path d="M2,24c0,-12.15026 9.84974,-22 22,-22c12.15026,0 22,9.84974 22,22c0,12.15026 -9.84974,22 -22,22c-12.15026,0 -22,-9.84974 -22,-22z" id="base 1 1 1" fill="none" stroke-width="1"></path><g id="svg2 1 1" fill="#000000" stroke-width="1" font-family="Roboto, sans-serif" font-weight="normal" font-size="14" text-anchor="start"><g id="layer1 1 1"><g id="g3376 1 1"></g></g></g><rect x="2" y="2" width="44" height="22" fill="none" stroke-width="1"></rect><path d="M2,24v-22h44v22z" fill="none" stroke-width="1"></path><path d="M2,24v-22h44v22z" fill="none" stroke-width="1"></path><path d="M2,24v-22h44v22z" fill="none" stroke-width="1"></path><path d="M2,24v-22h44v22z" fill="none" stroke-width="1"></path><g id="svg2 2 1" fill="#000000" stroke-width="1" font-family="Roboto, sans-serif" font-weight="normal" font-size="14" text-anchor="start"><g id="layer1 1 1"><g id="g3376 1 1"></g></g></g><rect x="2" y="2" width="44" height="22" fill="none" stroke-width="1"></rect><path d="M2,24v-22h44v22z" fill="none" stroke-width="1"></path><path d="M2,24v-22h44v22z" fill="none" stroke-width="1"></path><path d="M2,24v-22h44v22z" fill="none" stroke-width="1"></path><path d="M2,24v-22h44v22z" fill="none" stroke-width="1"></path></g></svg>